<mxGraphModel dx="3074" dy="1733" grid="1" gridSize="10" guides="1" tooltips="1" connect="1" arrows="1" fold="1" page="1" pageScale="1" pageWidth="3300" pageHeight="4681" background="#ffffff" math="0" shadow="0">
  <root>
    <mxCell id="0" />
    <mxCell id="1" parent="0" />
    <mxCell id="2" value="Bắt đầu" style="ellipse;whiteSpace=wrap;html=1;aspect=fixed;fillColor=#d5e8d4;strokeColor=#82b366;" vertex="1" parent="1">
      <mxGeometry x="150" y="40" width="80" height="80" as="geometry" />
    </mxCell>
    <mxCell id="3" value="" style="endArrow=classic;html=1;rounded=0;" edge="1" parent="1" source="2">
      <mxGeometry width="50" height="50" relative="1" as="geometry">
        <mxPoint x="190" y="120" as="sourcePoint" />
        <mxPoint x="190" y="170" as="targetPoint" />
      </mxGeometry>
    </mxCell>
    <mxCell id="4" value="CrawlOrchestratorService" style="swimlane;fontStyle=1;align=center;verticalAlign=top;childLayout=stackLayout;horizontal=1;startSize=26;horizontalStack=0;resizeParent=1;resizeParentMax=0;resizeLast=0;collapsible=1;marginBottom=0;whiteSpace=wrap;html=1;fillColor=#dae8fc;strokeColor=#6c8ebf;" vertex="1" parent="1">
      <mxGeometry x="40" y="170" width="300" height="110" as="geometry" />
    </mxCell>
    <mxCell id="5" value="Tiếp nhận lô ConferenceData (Title, Acronym)Tạo Batch Request ID" style="text;html=1;strokeColor=none;fillColor=none;align=center;verticalAlign=middle;whiteSpace=wrap;rounded=0;" vertex="1" parent="4">
      <mxGeometry y="26" width="300" height="84" as="geometry" />
    </mxCell>
    <mxCell id="6" value="" style="endArrow=classic;html=1;rounded=0;" edge="1" parent="1" source="4">
      <mxGeometry width="50" height="50" relative="1" as="geometry">
        <mxPoint x="190" y="280" as="sourcePoint" />
        <mxPoint x="190" y="330" as="targetPoint" />
      </mxGeometry>
    </mxCell>
    <mxCell id="7" value="TaskQueueService (p-queue)" style="swimlane;fontStyle=1;align=center;verticalAlign=top;childLayout=stackLayout;horizontal=1;startSize=26;horizontalStack=0;resizeParent=1;resizeParentMax=0;resizeLast=0;collapsible=1;marginBottom=0;whiteSpace=wrap;html=1;fillColor=#dae8fc;strokeColor=#6c8ebf;" vertex="1" parent="1">
      <mxGeometry x="40" y="330" width="300" height="110" as="geometry" />
    </mxCell>
    <mxCell id="8" value="Tạo và đưa các tác vụ (Promise) xử lý từng conference vào hàng đợi song song" style="text;html=1;strokeColor=none;fillColor=none;align=center;verticalAlign=middle;whiteSpace=wrap;rounded=0;" vertex="1" parent="7">
      <mxGeometry y="26" width="300" height="84" as="geometry" />
    </mxCell>
    <mxCell id="9" value="" style="endArrow=classic;html=1;rounded=0;" edge="1" parent="1" source="7">
      <mxGeometry width="50" height="50" relative="1" as="geometry">
        <mxPoint x="190" y="440" as="sourcePoint" />
        <mxPoint x="190" y="490" as="targetPoint" />
      </mxGeometry>
    </mxCell>
    <mxCell id="10" value="" style="shape=line;strokeWidth=3;direction=south;html=1;" vertex="1" parent="1">
      <mxGeometry x="80" y="490" width="220" height="10" as="geometry" />
    </mxCell>
    <mxCell id="11" value="" style="endArrow=classic;html=1;rounded=0;" edge="1" parent="1" source="10">
      <mxGeometry width="50" height="50" relative="1" as="geometry">
        <mxPoint x="190" y="500" as="sourcePoint" />
        <mxPoint x="650" y="540" as="targetPoint" />
        <Array as="points">
          <mxPoint x="190" y="540" />
        </Array>
      </mxGeometry>
    </mxCell>
    <mxCell id="12" value="Bắt đầu Tác vụ xử lý 1 Conference" style="ellipse;whiteSpace=wrap;html=1;aspect=fixed;fillColor=#d5e8d4;strokeColor=#82b366;" vertex="1" parent="1">
      <mxGeometry x="610" y="540" width="80" height="80" as="geometry" />
    </mxCell>
    <mxCell id="13" value="" style="endArrow=classic;html=1;rounded=0;" edge="1" parent="1" source="12">
      <mxGeometry width="50" height="50" relative="1" as="geometry">
        <mxPoint x="650" y="620" as="sourcePoint" />
        <mxPoint x="650" y="670" as="targetPoint" />
      </mxGeometry>
    </mxCell>
    <mxCell id="14" value="ConferenceProcessorService" style="swimlane;fontStyle=1;align=center;verticalAlign=top;childLayout=stackLayout;horizontal=1;startSize=26;horizontalStack=0;resizeParent=1;resizeParentMax=0;resizeLast=0;collapsible=1;marginBottom=0;whiteSpace=wrap;html=1;fillColor=#fff2cc;strokeColor=#d6b656;" vertex="1" parent="1">
      <mxGeometry x="490" y="670" width="320" height="110" as="geometry" />
    </mxCell>
    <mxCell id="15" value="Input có chứa sẵn mainLink, cfpLink, impLink không?" style="rhombus;whiteSpace=wrap;html=1;fillColor=#f8cecc;strokeColor=#b85450;" vertex="1" parent="14">
      <mxGeometry x="40" y="36" width="240" height="64" as="geometry" />
    </mxCell>
    <mxCell id="16" value="" style="endArrow=classic;html=1;rounded=0;exitX=0.5;exitY=1;exitDx=0;exitDy=0;" edge="1" parent="1" source="15">
      <mxGeometry width="50" height="50" relative="1" as="geometry">
        <mxPoint x="650" y="780" as="sourcePoint" />
        <mxPoint x="650" y="830" as="targetPoint" />
      </mxGeometry>
    </mxCell>
    <mxCell id="17" value="[Không] Luồng SAVE" style="text;html=1;align=center;verticalAlign=middle;resizable=0;points=[];autosize=1;strokeColor=none;fillColor=none;" vertex="1" parent="1">
      <mxGeometry x="655" y="790" width="130" height="30" as="geometry" />
    </mxCell>
    <mxCell id="18" value="[Có] Luồng UPDATE" style="text;html=1;align=center;verticalAlign=middle;resizable=0;points=[];autosize=1;strokeColor=none;fillColor=none;" vertex="1" parent="1">
      <mxGeometry x="815" y="725" width="130" height="30" as="geometry" />
    </mxCell>
    <mxCell id="19" value="Giai đoạn 1: Khám Phá &amp; Tiền Xử Lý" style="shape=process;whiteSpace=wrap;html=1;backgroundOutline=1;fontStyle=1;size=18;rounded=1;fillColor=#e1d5e7;strokeColor=#9673a6;" vertex="1" parent="1">
      <mxGeometry x="430" y="830" width="2060" height="480" as="geometry" />
    </mxCell>
    <mxCell id="20" value="GoogleSearchService" style="swimlane;fontStyle=1;align=center;verticalAlign=top;childLayout=stackLayout;horizontal=1;startSize=26;horizontalStack=0;resizeParent=1;resizeParentMax=0;resizeLast=0;collapsible=1;marginBottom=0;whiteSpace=wrap;html=1;fillColor=#fff2cc;strokeColor=#d6b656;" vertex="1" parent="19">
      <mxGeometry x="410" y="50" width="320" height="110" as="geometry" />
    </mxCell>
    <mxCell id="21" value="Tạo Truy Vấn Động từ Template(Title, Acronym, Year)" style="text;html=1;strokeColor=none;fillColor=none;align=center;verticalAlign=middle;whiteSpace=wrap;rounded=0;" vertex="1" parent="20">
      <mxGeometry y="26" width="320" height="84" as="geometry" />
    </mxCell>
    <mxCell id="22" value="" style="endArrow=classic;html=1;rounded=0;entryX=0;entryY=0.5;entryDx=0;entryDy=0;" edge="1" parent="19" target="21">
      <mxGeometry width="50" height="50" relative="1" as="geometry">
        <mxPoint x="350" y="105" as="sourcePoint" />
        <mxPoint x="410" y="105" as="targetPoint" />
      </mxGeometry>
    </mxCell>
    <mxCell id="23" value="ConferenceProcessorService" style="swimlane;fontStyle=1;align=center;verticalAlign=top;childLayout=stackLayout;horizontal=1;startSize=26;horizontalStack=0;resizeParent=1;resizeParentMax=0;resizeLast=0;collapsible=1;marginBottom=0;whiteSpace=wrap;html=1;fillColor=#fff2cc;strokeColor=#d6b656;" vertex="1" parent="19">
      <mxGeometry x="60" y="50" width="320" height="110" as="geometry" />
    </mxCell>
    <mxCell id="24" value="Tiếp nhận Title, Acronym, Year" style="text;html=1;strokeColor=none;fillColor=none;align=center;verticalAlign=middle;whiteSpace=wrap;rounded=0;" vertex="1" parent="23">
      <mxGeometry y="26" width="320" height="84" as="geometry" />
    </mxCell>
    <mxCell id="25" value="" style="endArrow=classic;html=1;rounded=0;exitX=0.5;exitY=1;exitDx=0;exitDy=0;" edge="1" parent="19" source="21">
      <mxGeometry width="50" height="50" relative="1" as="geometry">
        <mxPoint x="570" y="160" as="sourcePoint" />
        <mxPoint x="570" y="210" as="targetPoint" />
      </mxGeometry>
    </mxCell>
    <mxCell id="26" value="ApiKeyManager" style="swimlane;fontStyle=1;align=center;verticalAlign=top;childLayout=stackLayout;horizontal=1;startSize=26;horizontalStack=0;resizeParent=1;resizeParentMax=0;resizeLast=0;collapsible=1;marginBottom=0;whiteSpace=wrap;html=1;fillColor=#fff2cc;strokeColor=#d6b656;" vertex="1" parent="19">
      <mxGeometry x="410" y="210" width="320" height="110" as="geometry" />
    </mxCell>
    <mxCell id="27" value="Thực thi Google Search(Quản lý và xoay vòng API Key)" style="text;html=1;strokeColor=none;fillColor=none;align=center;verticalAlign=middle;whiteSpace=wrap;rounded=0;" vertex="1" parent="26">
      <mxGeometry y="26" width="320" height="84" as="geometry" />
    </mxCell>
    <mxCell id="28" value="" style="endArrow=classic;html=1;rounded=0;entryX=1;entryY=0.5;entryDx=0;entryDy=0;" edge="1" parent="19" source="27">
      <mxGeometry width="50" height="50" relative="1" as="geometry">
        <mxPoint x="410" y="265" as="sourcePoint" />
        <mxPoint x="380" y="375" as="targetPoint" />
        <Array as="points">
          <mxPoint x="400" y="265" />
          <mxPoint x="400" y="375" />
        </Array>
      </mxGeometry>
    </mxCell>
    <mxCell id="29" value="ConferenceProcessorService" style="swimlane;fontStyle=1;align=center;verticalAlign=top;childLayout=stackLayout;horizontal=1;startSize=26;horizontalStack=0;resizeParent=1;resizeParentMax=0;resizeLast=0;collapsible=1;marginBottom=0;whiteSpace=wrap;html=1;fillColor=#fff2cc;strokeColor=#d6b656;" vertex="1" parent="19">
      <mxGeometry x="60" y="320" width="320" height="110" as="geometry" />
    </mxCell>
    <mxCell id="30" value="Lọc Kết Quả Thông Minh(loại unwantedDomains, skipKeywords)" style="text;html=1;strokeColor=none;fillColor=none;align=center;verticalAlign=middle;whiteSpace=wrap;rounded=0;" vertex="1" parent="29">
      <mxGeometry y="26" width="320" height="84" as="geometry" />
    </mxCell>
    <mxCell id="31" value="" style="endArrow=classic;html=1;rounded=0;exitX=0.5;exitY=1;exitDx=0;exitDy=0;" edge="1" parent="19" source="30">
      <mxGeometry width="50" height="50" relative="1" as="geometry">
        <mxPoint x="220" y="430" as="sourcePoint" />
        <mxPoint x="900" y="105" as="targetPoint" />
        <Array as="points">
          <mxPoint x="220" y="450" />
          <mxPoint x="900" y="450" />
          <mxPoint x="900" y="105" />
        </Array>
      </mxGeometry>
    </mxCell>
    <mxCell id="32" value="BatchProcessingService" style="swimlane;fontStyle=1;align=center;verticalAlign=top;childLayout=stackLayout;horizontal=1;startSize=26;horizontalStack=0;resizeParent=1;resizeParentMax=0;resizeLast=0;collapsible=1;marginBottom=0;whiteSpace=wrap;html=1;fillColor=#fff2cc;strokeColor=#d6b656;" vertex="1" parent="19">
      <mxGeometry x="740" y="50" width="320" height="110" as="geometry" />
    </mxCell>
    <mxCell id="33" value="Điều phối crawl ban đầu cho các link tiềm năng (Top N)" style="text;html=1;strokeColor=none;fillColor=none;align=center;verticalAlign=middle;whiteSpace=wrap;rounded=0;" vertex="1" parent="32">
      <mxGeometry y="26" width="320" height="84" as="geometry" />
    </mxCell>
    <mxCell id="34" value="" style="endArrow=classic;html=1;rounded=0;exitX=0.5;exitY=1;exitDx=0;exitDy=0;" edge="1" parent="19" source="33">
      <mxGeometry width="50" height="50" relative="1" as="geometry">
        <mxPoint x="900" y="160" as="sourcePoint" />
        <mxPoint x="1260" y="105" as="targetPoint" />
        <Array as="points">
          <mxPoint x="900" y="180" />
          <mxPoint x="1260" y="180" />
          <mxPoint x="1260" y="105" />
        </Array>
      </mxGeometry>
    </mxCell>
    <mxCell id="35" value="PlaywrightService" style="swimlane;fontStyle=1;align=center;verticalAlign=top;childLayout=stackLayout;horizontal=1;startSize=26;horizontalStack=0;resizeParent=1;resizeParentMax=0;resizeLast=0;collapsible=1;marginBottom=0;whiteSpace=wrap;html=1;fillColor=#fff2cc;strokeColor=#d6b656;" vertex="1" parent="19">
      <mxGeometry x="1100" y="50" width="320" height="110" as="geometry" />
    </mxCell>
    <mxCell id="36" value="Mở page, thực hiện crawl song song, lấy Raw HTML Content" style="text;html=1;strokeColor=none;fillColor=none;align=center;verticalAlign=middle;whiteSpace=wrap;rounded=0;" vertex="1" parent="35">
      <mxGeometry y="26" width="320" height="84" as="geometry" />
    </mxCell>
    <mxCell id="37" value="" style="endArrow=classic;html=1;rounded=0;exitX=0.5;exitY=1;exitDx=0;exitDy=0;" edge="1" parent="19" source="36">
      <mxGeometry width="50" height="50" relative="1" as="geometry">
        <mxPoint x="1260" y="160" as="sourcePoint" />
        <mxPoint x="1620" y="105" as="targetPoint" />
        <Array as="points">
          <mxPoint x="1260" y="180" />
          <mxPoint x="1620" y="180" />
          <mxPoint x="1620" y="105" />
        </Array>
      </mxGeometry>
    </mxCell>
    <mxCell id="38" value="PageContentExtractorService" style="swimlane;fontStyle=1;align=center;verticalAlign=top;childLayout=stackLayout;horizontal=1;startSize=26;horizontalStack=0;resizeParent=1;resizeParentMax=0;resizeLast=0;collapsible=1;marginBottom=0;whiteSpace=wrap;html=1;fillColor=#fff2cc;strokeColor=#d6b656;" vertex="1" parent="19">
      <mxGeometry x="1460" y="50" width="320" height="110" as="geometry" />
    </mxCell>
    <mxCell id="39" value="Trích xuất Enriched Text(sử dụng dom_processing.ts)" style="text;html=1;strokeColor=none;fillColor=none;align=center;verticalAlign=middle;whiteSpace=wrap;rounded=0;" vertex="1" parent="38">
      <mxGeometry y="26" width="320" height="84" as="geometry" />
    </mxCell>
    <mxCell id="40" value="" style="endArrow=classic;html=1;rounded=0;exitX=0.5;exitY=1;exitDx=0;exitDy=0;" edge="1" parent="19" source="39">
      <mxGeometry width="50" height="50" relative="1" as="geometry">
        <mxPoint x="1620" y="160" as="sourcePoint" />
        <mxPoint x="1620" y="210" as="targetPoint" />
      </mxGeometry>
    </mxCell>
    <mxCell id="41" value="FileSystemService" style="swimlane;fontStyle=1;align=center;verticalAlign=top;childLayout=stackLayout;horizontal=1;startSize=26;horizontalStack=0;resizeParent=1;resizeParentMax=0;resizeLast=0;collapsible=1;marginBottom=0;whiteSpace=wrap;html=1;fillColor=#fff2cc;strokeColor=#d6b656;" vertex="1" parent="19">
      <mxGeometry x="1460" y="210" width="320" height="110" as="geometry" />
    </mxCell>
    <mxCell id="42" value="Ghi Enriched Text của mỗi link vào file tạm riêng biệt" style="text;html=1;strokeColor=none;fillColor=none;align=center;verticalAlign=middle;whiteSpace=wrap;rounded=0;" vertex="1" parent="41">
      <mxGeometry y="26" width="320" height="84" as="geometry" />
    </mxCell>
    <mxCell id="43" value="" style="endArrow=classic;html=1;rounded=0;exitX=1;exitY=0.5;exitDx=0;exitDy=0;" edge="1" parent="1" source="15">
      <mxGeometry width="50" height="50" relative="1" as="geometry">
        <mxPoint x="810" y="740" as="sourcePoint" />
        <mxPoint x="990" y="2125" as="targetPoint" />
        <Array as="points">
          <mxPoint x="950" y="740" />
          <mxPoint x="950" y="2125" />
        </Array>
      </mxGeometry>
    </mxCell>
    <mxCell id="44" value="" style="endArrow=classic;html=1;rounded=0;entryX=0.5;entryY=0;entryDx=0;entryDy=0;" edge="1" parent="1" source="19">
      <mxGeometry width="50" height="50" relative="1" as="geometry">
        <mxPoint x="1460" y="1310" as="sourcePoint" />
        <mxPoint x="1460" y="1360" as="targetPoint" />
      </mxGeometry>
    </mxCell>
    <mxCell id="45" value="Giai đoạn 2: AI-Powered Xác Định &amp; Tinh Chỉnh" style="shape=process;whiteSpace=wrap;html=1;backgroundOutline=1;fontStyle=1;size=18;rounded=1;fillColor=#e1d5e7;strokeColor=#9673a6;" vertex="1" parent="1">
      <mxGeometry x="430" y="1360" width="2060" height="690" as="geometry" />
    </mxCell>
    <mxCell id="46" value="BatchProcessingService" style="swimlane;fontStyle=1;align=center;verticalAlign=top;childLayout=stackLayout;horizontal=1;startSize=26;horizontalStack=0;resizeParent=1;resizeParentMax=0;resizeLast=0;collapsible=1;marginBottom=0;whiteSpace=wrap;html=1;fillColor=#f8cecc;strokeColor=#b85450;" vertex="1" parent="45">
      <mxGeometry x="60" y="50" width="320" height="110" as="geometry" />
    </mxCell>
    <mxCell id="47" value="Đọc và Tổng hợp Enriched Text từ các file tạm" style="text;html=1;strokeColor=none;fillColor=none;align=center;verticalAlign=middle;whiteSpace=wrap;rounded=0;" vertex="1" parent="46">
      <mxGeometry y="26" width="320" height="84" as="geometry" />
    </mxCell>
    <mxCell id="48" value="" style="endArrow=classic;html=1;rounded=0;exitX=0.5;exitY=1;exitDx=0;exitDy=0;" edge="1" parent="45" source="47">
      <mxGeometry width="50" height="50" relative="1" as="geometry">
        <mxPoint x="220" y="160" as="sourcePoint" />
        <mxPoint x="570" y="105" as="targetPoint" />
        <Array as="points">
          <mxPoint x="220" y="180" />
          <mxPoint x="570" y="180" />
          <mxPoint x="570" y="105" />
        </Array>
      </mxGeometry>
    </mxCell>
    <mxCell id="49" value="GeminiApiService" style="swimlane;fontStyle=1;align=center;verticalAlign=top;childLayout=stackLayout;horizontal=1;startSize=26;horizontalStack=0;resizeParent=1;resizeParentMax=0;resizeLast=0;collapsible=1;marginBottom=0;whiteSpace=wrap;html=1;fillColor=#f8cecc;strokeColor=#b85450;" vertex="1" parent="45">
      <mxGeometry x="410" y="50" width="320" height="110" as="geometry" />
    </mxCell>
    <mxCell id="50" value="Chuẩn bị Prompt cho Determine Links(sử dụng GeminiContextCacheService)" style="text;html=1;strokeColor=none;fillColor=none;align=center;verticalAlign=middle;whiteSpace=wrap;rounded=0;" vertex="1" parent="49">
      <mxGeometry y="26" width="320" height="84" as="geometry" />
    </mxCell>
    <mxCell id="51" value="" style="endArrow=classic;html=1;rounded=0;exitX=0.5;exitY=1;exitDx=0;exitDy=0;" edge="1" parent="45" source="50">
      <mxGeometry width="50" height="50" relative="1" as="geometry">
        <mxPoint x="570" y="160" as="sourcePoint" />
        <mxPoint x="570" y="210" as="targetPoint" />
      </mxGeometry>
    </mxCell>
    <mxCell id="52" value="GeminiApiService" style="swimlane;fontStyle=1;align=center;verticalAlign=top;childLayout=stackLayout;horizontal=1;startSize=26;horizontalStack=0;resizeParent=1;resizeParentMax=0;resizeLast=0;collapsible=1;marginBottom=0;whiteSpace=wrap;html=1;fillColor=#f8cecc;strokeColor=#b85450;" vertex="1" parent="45">
      <mxGeometry x="410" y="210" width="320" height="110" as="geometry" />
    </mxCell>
    <mxCell id="53" value="Call API #1: determineLinks()" style="text;html=1;strokeColor=none;fillColor=none;align=center;verticalAlign=middle;whiteSpace=wrap;rounded=0;" vertex="1" parent="52">
      <mxGeometry y="26" width="320" height="84" as="geometry" />
    </mxCell>
    <mxCell id="54" value="" style="endArrow=classic;html=1;rounded=0;exitX=0.5;exitY=1;exitDx=0;exitDy=0;" edge="1" parent="45" source="53">
      <mxGeometry width="50" height="50" relative="1" as="geometry">
        <mxPoint x="570" y="320" as="sourcePoint" />
        <mxPoint x="900" y="105" as="targetPoint" />
        <Array as="points">
          <mxPoint x="570" y="340" />
          <mxPoint x="900" y="340" />
          <mxPoint x="900" y="105" />
        </Array>
      </mxGeometry>
    </mxCell>
    <mxCell id="55" value="GeminiRetryHandlerService" style="swimlane;fontStyle=1;align=center;verticalAlign=top;childLayout=stackLayout;horizontal=1;startSize=26;horizontalStack=0;resizeParent=1;resizeParentMax=0;resizeLast=0;collapsible=1;marginBottom=0;whiteSpace=wrap;html=1;fillColor=#f8cecc;strokeColor=#b85450;" vertex="1" parent="45">
      <mxGeometry x="740" y="50" width="320" height="110" as="geometry" />
    </mxCell>
    <mxCell id="56" value="Xử lý Retry (với exponential backoff) / Fallback (sang model dự phòng) cho API Call" style="text;html=1;strokeColor=none;fillColor=none;align=center;verticalAlign=middle;whiteSpace=wrap;rounded=0;" vertex="1" parent="55">
      <mxGeometry y="26" width="320" height="84" as="geometry" />
    </mxCell>
    <mxCell id="57" value="" style="endArrow=classic;html=1;rounded=0;exitX=0.5;exitY=1;exitDx=0;exitDy=0;" edge="1" parent="45" source="56">
      <mxGeometry width="50" height="50" relative="1" as="geometry">
        <mxPoint x="900" y="160" as="sourcePoint" />
        <mxPoint x="900" y="210" as="targetPoint" />
      </mxGeometry>
    </mxCell>
    <mxCell id="58" value="ConferenceDeterminationService" style="swimlane;fontStyle=1;align=center;verticalAlign=top;childLayout=stackLayout;horizontal=1;startSize=26;horizontalStack=0;resizeParent=1;resizeParentMax=0;resizeLast=0;collapsible=1;marginBottom=0;whiteSpace=wrap;html=1;fillColor=#f8cecc;strokeColor=#b85450;" vertex="1" parent="45">
      <mxGeometry x="740" y="210" width="320" height="110" as="geometry" />
    </mxCell>
    <mxCell id="59" value="Link Official từ AI có khớp với link đã crawl?" style="rhombus;whiteSpace=wrap;html=1;" vertex="1" parent="58">
      <mxGeometry x="40" y="33" width="240" height="70" as="geometry" />
    </mxCell>
    <mxCell id="60" value="" style="endArrow=classic;html=1;rounded=0;exitX=0;exitY=0.5;exitDx=0;exitDy=0;" edge="1" parent="45" source="59">
      <mxGeometry width="50" height="50" relative="1" as="geometry">
        <mxPoint x="740" y="268" as="sourcePoint" />
        <mxPoint x="680" y="425" as="targetPoint" />
        <Array as="points">
          <mxPoint x="680" y="268" />
          <mxPoint x="680" y="425" />
        </Array>
      </mxGeometry>
    </mxCell>
    <mxCell id="61" value="[Luồng Match]" style="text;html=1;align=center;verticalAlign=middle;resizable=0;points=[];autosize=1;strokeColor=none;fillColor=none;" vertex="1" parent="45">
      <mxGeometry x="685" y="330" width="110" height="30" as="geometry" />
    </mxCell>
    <mxCell id="62" value="" style="endArrow=classic;html=1;rounded=0;exitX=1;exitY=0.5;exitDx=0;exitDy=0;" edge="1" parent="45" source="59">
      <mxGeometry width="50" height="50" relative="1" as="geometry">
        <mxPoint x="1060" y="268" as="sourcePoint" />
        <mxPoint x="1260" y="268" as="targetPoint" />
      </mxGeometry>
    </mxCell>
    <mxCell id="63" value="[Luồng No Match]" style="text;html=1;align=center;verticalAlign=middle;resizable=0;points=[];autosize=1;strokeColor=none;fillColor=none;" vertex="1" parent="45">
      <mxGeometry x="1085" y="238" width="120" height="30" as="geometry" />
    </mxCell>
    <mxCell id="64" value="PlaywrightService" style="swimlane;fontStyle=1;align=center;verticalAlign=top;childLayout=stackLayout;horizontal=1;startSize=26;horizontalStack=0;resizeParent=1;resizeParentMax=0;resizeLast=0;collapsible=1;marginBottom=0;whiteSpace=wrap;html=1;fillColor=#f8cecc;strokeColor=#b85450;" vertex="1" parent="45">
      <mxGeometry x="1100" y="210" width="320" height="110" as="geometry" />
    </mxCell>
    <mxCell id="65" value="Crawl lại trang Official mới (và lấy Enriched Text)" style="text;html=1;strokeColor=none;fillColor=none;align=center;verticalAlign=middle;whiteSpace=wrap;rounded=0;" vertex="1" parent="64">
      <mxGeometry y="26" width="320" height="84" as="geometry" />
    </mxCell>
    <mxCell id="66" value="" style="endArrow=classic;html=1;rounded=0;exitX=0.5;exitY=1;exitDx=0;exitDy=0;" edge="1" parent="45" source="65">
      <mxGeometry width="50" height="50" relative="1" as="geometry">
        <mxPoint x="1260" y="320" as="sourcePoint" />
        <mxPoint x="1260" y="370" as="targetPoint" />
      </mxGeometry>
    </mxCell>
    <mxCell id="67" value="Cần gọi lại API để tinh chỉnh link CFP/IMP?" style="rhombus;whiteSpace=wrap;html=1;" vertex="1" parent="45">
      <mxGeometry x="1160" y="370" width="200" height="80" as="geometry" />
    </mxCell>
    <mxCell id="68" value="" style="endArrow=classic;html=1;rounded=0;exitX=0;exitY=0.5;exitDx=0;exitDy=0;" edge="1" parent="45" source="67">
      <mxGeometry width="50" height="50" relative="1" as="geometry">
        <mxPoint x="1160" y="410" as="sourcePoint" />
        <mxPoint x="1000" y="590" as="targetPoint" />
        <Array as="points">
          <mxPoint x="1100" y="410" />
          <mxPoint x="1100" y="590" />
          <mxPoint x="1000" y="590" />
        </Array>
      </mxGeometry>
    </mxCell>
    <mxCell id="69" value="[Không]" style="text;html=1;align=center;verticalAlign=middle;resizable=0;points=[];autosize=1;strokeColor=none;fillColor=none;" vertex="1" parent="45">
      <mxGeometry x="1105" y="490" width="60" height="30" as="geometry" />
    </mxCell>
    <mxCell id="70" value="" style="endArrow=classic;html=1;rounded=0;exitX=1;exitY=0.5;exitDx=0;exitDy=0;" edge="1" parent="45" source="67">
      <mxGeometry width="50" height="50" relative="1" as="geometry">
        <mxPoint x="1360" y="410" as="sourcePoint" />
        <mxPoint x="1560" y="410" as="targetPoint" />
      </mxGeometry>
    </mxCell>
    <mxCell id="71" value="[Có]" style="text;html=1;align=center;verticalAlign=middle;resizable=0;points=[];autosize=1;strokeColor=none;fillColor=none;" vertex="1" parent="45">
      <mxGeometry x="1430" y="380" width="50" height="30" as="geometry" />
    </mxCell>
    <mxCell id="72" value="GeminiApiService" style="swimlane;fontStyle=1;align=center;verticalAlign=top;childLayout=stackLayout;horizontal=1;startSize=26;horizontalStack=0;resizeParent=1;resizeParentMax=0;resizeLast=0;collapsible=1;marginBottom=0;whiteSpace=wrap;html=1;fillColor=#f8cecc;strokeColor=#b85450;" vertex="1" parent="45">
      <mxGeometry x="1560" y="355" width="320" height="110" as="geometry" />
    </mxCell>
    <mxCell id="73" value="Call API #2: Re-Determine Links(Gửi Enriched Text của trang Official mới)" style="text;html=1;strokeColor=none;fillColor=none;align=center;verticalAlign=middle;whiteSpace=wrap;rounded=0;" vertex="1" parent="72">
      <mxGeometry y="26" width="320" height="84" as="geometry" />
    </mxCell>
    <mxCell id="74" value="" style="endArrow=classic;html=1;rounded=0;exitX=0.5;exitY=1;exitDx=0;exitDy=0;" edge="1" parent="45" source="73">
      <mxGeometry width="50" height="50" relative="1" as="geometry">
        <mxPoint x="1720" y="465" as="sourcePoint" />
        <mxPoint x="1000" y="590" as="targetPoint" />
        <Array as="points">
          <mxPoint x="1720" y="590" />
          <mxPoint x="1000" y="590" />
        </Array>
      </mxGeometry>
    </mxCell>
    <mxCell id="75" value="PlaywrightService" style="swimlane;fontStyle=1;align=center;verticalAlign=top;childLayout=stackLayout;horizontal=1;startSize=26;horizontalStack=0;resizeParent=1;resizeParentMax=0;resizeLast=0;collapsible=1;marginBottom=0;whiteSpace=wrap;html=1;fillColor=#f8cecc;strokeColor=#b85450;" vertex="1" parent="45">
      <mxGeometry x="520" y="425" width="320" height="110" as="geometry" />
    </mxCell>
    <mxCell id="76" value="Crawl bổ sung CFP/IMP link (nếu khác Official và chưa được crawl)" style="text;html=1;strokeColor=none;fillColor=none;align=center;verticalAlign=middle;whiteSpace=wrap;rounded=0;" vertex="1" parent="75">
      <mxGeometry y="26" width="320" height="84" as="geometry" />
    </mxCell>
    <mxCell id="77" value="" style="endArrow=classic;html=1;rounded=0;exitX=0.5;exitY=1;exitDx=0;exitDy=0;" edge="1" parent="45" source="76">
      <mxGeometry width="50" height="50" relative="1" as="geometry">
        <mxPoint x="680" y="535" as="sourcePoint" />
        <mxPoint x="840" y="590" as="targetPoint" />
        <Array as="points">
          <mxPoint x="680" y="590" />
        </Array>
      </mxGeometry>
    </mxCell>
    <mxCell id="78" value="" style="rhombus;whiteSpace=wrap;html=1;" vertex="1" parent="45">
      <mxGeometry x="840" y="580" width="160" height="20" as="geometry" />
    </mxCell>
    <mxCell id="79" value="" style="endArrow=classic;html=1;rounded=0;exitX=0.5;exitY=1;exitDx=0;exitDy=0;" edge="1" parent="45" source="78">
      <mxGeometry width="50" height="50" relative="1" as="geometry">
        <mxPoint x="920" y="600" as="sourcePoint" />
        <mxPoint x="920" y="620" as="targetPoint" />
      </mxGeometry>
    </mxCell>
    <mxCell id="80" value="Lưu trữ các link đã xác định (Official, CFP, IMP) vào metadata" style="rounded=1;whiteSpace=wrap;html=1;fillColor=#f8cecc;strokeColor=#b85450;" vertex="1" parent="45">
      <mxGeometry x="780" y="620" width="280" height="50" as="geometry" />
    </mxCell>
    <mxCell id="81" value="" style="endArrow=classic;html=1;rounded=0;" edge="1" parent="1" source="45">
      <mxGeometry width="50" height="50" relative="1" as="geometry">
        <mxPoint x="1460" y="2050" as="sourcePoint" />
        <mxPoint x="1460" y="2100" as="targetPoint" />
      </mxGeometry>
    </mxCell>
    <mxCell id="82" value="Giai đoạn 3: Trích Xuất Song Song &amp; Hoàn Tất" style="shape=process;whiteSpace=wrap;html=1;backgroundOutline=1;fontStyle=1;size=18;rounded=1;fillColor=#e1d5e7;strokeColor=#9673a6;" vertex="1" parent="1">
      <mxGeometry x="430" y="2100" width="2060" height="1110" as="geometry" />
    </mxCell>
    <mxCell id="83" value="BatchProcessingService" style="swimlane;fontStyle=1;align=center;verticalAlign=top;childLayout=stackLayout;horizontal=1;startSize=26;horizontalStack=0;resizeParent=1;resizeParentMax=0;resizeLast=0;collapsible=1;marginBottom=0;whiteSpace=wrap;html=1;fillColor=#d5e8d4;strokeColor=#82b366;" vertex="1" parent="82">
      <mxGeometry x="60" y="25" width="320" height="110" as="geometry" />
    </mxCell>
    <mxCell id="84" value="Tổng hợp toàn bộ Enriched Text chất lượng cao từ các trang Official, CFP, IMP đã xác định" style="text;html=1;strokeColor=none;fillColor=none;align=center;verticalAlign=middle;whiteSpace=wrap;rounded=0;" vertex="1" parent="83">
      <mxGeometry y="26" width="320" height="84" as="geometry" />
    </mxCell>
    <mxCell id="85" value="" style="endArrow=classic;html=1;rounded=0;exitX=0.5;exitY=1;exitDx=0;exitDy=0;" edge="1" parent="82" source="84">
      <mxGeometry width="50" height="50" relative="1" as="geometry">
        <mxPoint x="220" y="135" as="sourcePoint" />
        <mxPoint x="220" y="185" as="targetPoint" />
      </mxGeometry>
    </mxCell>
    <mxCell id="86" value="" style="shape=line;strokeWidth=3;direction=south;html=1;" vertex="1" parent="82">
      <mxGeometry x="110" y="185" width="220" height="10" as="geometry" />
    </mxCell>
    <mxCell id="87" value="Promise.all" style="text;html=1;align=center;verticalAlign=middle;resizable=0;points=[];autosize=1;strokeColor=none;fillColor=none;fontStyle=1" vertex="1" parent="82">
      <mxGeometry x="215" y="155" width="90" height="30" as="geometry" />
    </mxCell>
    <mxCell id="88" value="" style="endArrow=classic;html=1;rounded=0;" edge="1" parent="82" source="86">
      <mxGeometry width="50" height="50" relative="1" as="geometry">
        <mxPoint x="165" y="195" as="sourcePoint" />
        <mxPoint x="570" y="240" as="targetPoint" />
        <Array as="points">
          <mxPoint x="165" y="240" />
        </Array>
      </mxGeometry>
    </mxCell>
    <mxCell id="89" value="" style="endArrow=classic;html=1;rounded=0;" edge="1" parent="82" source="86">
      <mxGeometry width="50" height="50" relative="1" as="geometry">
        <mxPoint x="275" y="195" as="sourcePoint" />
        <mxPoint x="570" y="380" as="targetPoint" />
        <Array as="points">
          <mxPoint x="275" y="380" />
        </Array>
      </mxGeometry>
    </mxCell>
    <mxCell id="90" value="GeminiApiService" style="swimlane;fontStyle=1;align=center;verticalAlign=top;childLayout=stackLayout;horizontal=1;startSize=26;horizontalStack=0;resizeParent=1;resizeParentMax=0;resizeLast=0;collapsible=1;marginBottom=0;whiteSpace=wrap;html=1;fillColor=#d5e8d4;strokeColor=#82b366;" vertex="1" parent="82">
      <mxGeometry x="410" y="185" width="320" height="110" as="geometry" />
    </mxCell>
    <mxCell id="91" value="Call API #3: extractInformation()" style="text;html=1;strokeColor=none;fillColor=none;align=center;verticalAlign=middle;whiteSpace=wrap;rounded=0;" vertex="1" parent="90">
      <mxGeometry y="26" width="320" height="84" as="geometry" />
    </mxCell>
    <mxCell id="92" value="GeminiApiService" style="swimlane;fontStyle=1;align=center;verticalAlign=top;childLayout=stackLayout;horizontal=1;startSize=26;horizontalStack=0;resizeParent=1;resizeParentMax=0;resizeLast=0;collapsible=1;marginBottom=0;whiteSpace=wrap;html=1;fillColor=#d5e8d4;strokeColor=#82b366;" vertex="1" parent="82">
      <mxGeometry x="410" y="325" width="320" height="110" as="geometry" />
    </mxCell>
    <mxCell id="93" value="Call API #4: extractCfp()" style="text;html=1;strokeColor=none;fillColor=none;align=center;verticalAlign=middle;whiteSpace=wrap;rounded=0;" vertex="1" parent="92">
      <mxGeometry y="26" width="320" height="84" as="geometry" />
    </mxCell>
    <mxCell id="94" value="" style="endArrow=classic;html=1;rounded=0;exitX=1;exitY=0.5;exitDx=0;exitDy=0;" edge="1" parent="82" source="91">
      <mxGeometry width="50" height="50" relative="1" as="geometry">
        <mxPoint x="730" y="240" as="sourcePoint" />
        <mxPoint x="900" y="240" as="targetPoint" />
      </mxGeometry>
    </mxCell>
    <mxCell id="95" value="" style="endArrow=classic;html=1;rounded=0;exitX=1;exitY=0.5;exitDx=0;exitDy=0;" edge="1" parent="82" source="93">
      <mxGeometry width="50" height="50" relative="1" as="geometry">
        <mxPoint x="730" y="380" as="sourcePoint" />
        <mxPoint x="900" y="380" as="targetPoint" />
      </mxGeometry>
    </mxCell>
    <mxCell id="96" value="GeminiResponseHandlerService" style="swimlane;fontStyle=1;align=center;verticalAlign=top;childLayout=stackLayout;horizontal=1;startSize=26;horizontalStack=0;resizeParent=1;resizeParentMax=0;resizeLast=0;collapsible=1;marginBottom=0;whiteSpace=wrap;html=1;fillColor=#d5e8d4;strokeColor=#82b366;" vertex="1" parent="82">
      <mxGeometry x="740" y="185" width="320" height="110" as="geometry" />
    </mxCell>
    <mxCell id="97" value="Dọn dẹp (bóc tách markdown) &amp; Parse JSON từ API #3" style="text;html=1;strokeColor=none;fillColor=none;align=center;verticalAlign=middle;whiteSpace=wrap;rounded=0;" vertex="1" parent="96">
      <mxGeometry y="26" width="320" height="84" as="geometry" />
    </mxCell>
    <mxCell id="98" value="GeminiResponseHandlerService" style="swimlane;fontStyle=1;align=center;verticalAlign=top;childLayout=stackLayout;horizontal=1;startSize=26;horizontalStack=0;resizeParent=1;resizeParentMax=0;resizeLast=0;collapsible=1;marginBottom=0;whiteSpace=wrap;html=1;fillColor=#d5e8d4;strokeColor=#82b366;" vertex="1" parent="82">
      <mxGeometry x="740" y="325" width="320" height="110" as="geometry" />
    </mxCell>
    <mxCell id="99" value="Dọn dẹp &amp; Parse JSON từ API #4" style="text;html=1;strokeColor=none;fillColor=none;align=center;verticalAlign=middle;whiteSpace=wrap;rounded=0;" vertex="1" parent="98">
      <mxGeometry y="26" width="320" height="84" as="geometry" />
    </mxCell>
    <mxCell id="100" value="" style="endArrow=classic;html=1;rounded=0;exitX=1;exitY=0.5;exitDx=0;exitDy=0;" edge="1" parent="82" source="97">
      <mxGeometry width="50" height="50" relative="1" as="geometry">
        <mxPoint x="1060" y="240" as="sourcePoint" />
        <mxPoint x="1220" y="240" as="targetPoint" />
      </mxGeometry>
    </mxCell>
    <mxCell id="101" value="" style="endArrow=classic;html=1;rounded=0;exitX=1;exitY=0.5;exitDx=0;exitDy=0;" edge="1" parent="82" source="99">
      <mxGeometry width="50" height="50" relative="1" as="geometry">
        <mxPoint x="1060" y="380" as="sourcePoint" />
        <mxPoint x="1220" y="380" as="targetPoint" />
      </mxGeometry>
    </mxCell>
    <mxCell id="102" value="FileSystemService" style="swimlane;fontStyle=1;align=center;verticalAlign=top;childLayout=stackLayout;horizontal=1;startSize=26;horizontalStack=0;resizeParent=1;resizeParentMax=0;resizeLast=0;collapsible=1;marginBottom=0;whiteSpace=wrap;html=1;fillColor=#d5e8d4;strokeColor=#82b366;" vertex="1" parent="82">
      <mxGeometry x="1060" y="185" width="320" height="110" as="geometry" />
    </mxCell>
    <mxCell id="103" value="Lưu kết quả JSON từ API #3 vào file tạm (info_output.json)" style="text;html=1;strokeColor=none;fillColor=none;align=center;verticalAlign=middle;whiteSpace=wrap;rounded=0;" vertex="1" parent="102">
      <mxGeometry y="26" width="320" height="84" as="geometry" />
    </mxCell>
    <mxCell id="104" value="FileSystemService" style="swimlane;fontStyle=1;align=center;verticalAlign=top;childLayout=stackLayout;horizontal=1;startSize=26;horizontalStack=0;resizeParent=1;resizeParentMax=0;resizeLast=0;collapsible=1;marginBottom=0;whiteSpace=wrap;html=1;fillColor=#d5e8d4;strokeColor=#82b366;" vertex="1" parent="82">
      <mxGeometry x="1060" y="325" width="320" height="110" as="geometry" />
    </mxCell>
    <mxCell id="105" value="Lưu kết quả JSON từ API #4 vào file tạm (cfp_output.json)" style="text;html=1;strokeColor=none;fillColor=none;align=center;verticalAlign=middle;whiteSpace=wrap;rounded=0;" vertex="1" parent="104">
      <mxGeometry y="26" width="320" height="84" as="geometry" />
    </mxCell>
    <mxCell id="106" value="" style="shape=line;strokeWidth=3;direction=south;html=1;" vertex="1" parent="82">
      <mxGeometry x="1420" y="480" width="10" height="50" as="geometry" />
    </mxCell>
    <mxCell id="107" value="" style="endArrow=classic;html=1;rounded=0;exitX=1;exitY=0.5;exitDx=0;exitDy=0;" edge="1" parent="82" source="103">
      <mxGeometry width="50" height="50" relative="1" as="geometry">
        <mxPoint x="1380" y="240" as="sourcePoint" />
        <mxPoint x="1420" y="490" as="targetPoint" />
        <Array as="points">
          <mxPoint x="1425" y="240" />
        </Array>
      </mxGeometry>
    </mxCell>
    <mxCell id="108" value="" style="endArrow=classic;html=1;rounded=0;exitX=1;exitY=0.5;exitDx=0;exitDy=0;" edge="1" parent="82" source="105">
      <mxGeometry width="50" height="50" relative="1" as="geometry">
        <mxPoint x="1380" y="380" as="sourcePoint" />
        <mxPoint x="1420" y="520" as="targetPoint" />
        <Array as="points">
          <mxPoint x="1425" y="380" />
        </Array>
      </mxGeometry>
    </mxCell>
    <mxCell id="109" value="" style="endArrow=classic;html=1;rounded=0;" edge="1" parent="82" source="106">
      <mxGeometry width="50" height="50" relative="1" as="geometry">
        <mxPoint x="1425" y="530" as="sourcePoint" />
        <mxPoint x="1425" y="580" as="targetPoint" />
      </mxGeometry>
    </mxCell>
    <mxCell id="110" value="ResultProcessingService" style="swimlane;fontStyle=1;align=center;verticalAlign=top;childLayout=stackLayout;horizontal=1;startSize=26;horizontalStack=0;resizeParent=1;resizeParentMax=0;resizeLast=0;collapsible=1;marginBottom=0;whiteSpace=wrap;html=1;fillColor=#d5e8d4;strokeColor=#82b366;" vertex="1" parent="82">
      <mxGeometry x="1265" y="580" width="320" height="110" as="geometry" />
    </mxCell>
    <mxCell id="111" value="Tổng hợp, Chuẩn hóa (ngày tháng, enum), Validate dữ liệu" style="text;html=1;strokeColor=none;fillColor=none;align=center;verticalAlign=middle;whiteSpace=wrap;rounded=0;" vertex="1" parent="110">
      <mxGeometry y="26" width="320" height="84" as="geometry" />
    </mxCell>
    <mxCell id="112" value="" style="endArrow=classic;html=1;rounded=0;exitX=0.5;exitY=1;exitDx=0;exitDy=0;" edge="1" parent="82" source="111">
      <mxGeometry width="50" height="50" relative="1" as="geometry">
        <mxPoint x="1425" y="690" as="sourcePoint" />
        <mxPoint x="1425" y="740" as="targetPoint" />
      </mxGeometry>
    </mxCell>
    <mxCell id="113" value="FileSystemService" style="swimlane;fontStyle=1;align=center;verticalAlign=top;childLayout=stackLayout;horizontal=1;startSize=26;horizontalStack=0;resizeParent=1;resizeParentMax=0;resizeLast=0;collapsible=1;marginBottom=0;whiteSpace=wrap;html=1;fillColor=#d5e8d4;strokeColor=#82b366;" vertex="1" parent="82">
      <mxGeometry x="1265" y="740" width="320" height="110" as="geometry" />
    </mxCell>
    <mxCell id="114" value="Ghi đối tượng JSON hoàn chỉnh vào file final_output_{batchId}.jsonl" style="text;html=1;strokeColor=none;fillColor=none;align=center;verticalAlign=middle;whiteSpace=wrap;rounded=0;" vertex="1" parent="113">
      <mxGeometry y="26" width="320" height="84" as="geometry" />
    </mxCell>
    <mxCell id="115" value="" style="endArrow=classic;html=1;rounded=0;exitX=0.5;exitY=1;exitDx=0;exitDy=0;" edge="1" parent="82" source="114">
      <mxGeometry width="50" height="50" relative="1" as="geometry">
        <mxPoint x="1425" y="850" as="sourcePoint" />
        <mxPoint x="1425" y="900" as="targetPoint" />
      </mxGeometry>
    </mxCell>
    <mxCell id="116" value="ResultProcessingService" style="swimlane;fontStyle=1;align=center;verticalAlign=top;childLayout=stackLayout;horizontal=1;startSize=26;horizontalStack=0;resizeParent=1;resizeParentMax=0;resizeLast=0;collapsible=1;marginBottom=0;whiteSpace=wrap;html=1;fillColor=#d5e8d4;strokeColor=#82b366;" vertex="1" parent="82">
      <mxGeometry x="1265" y="900" width="320" height="110" as="geometry" />
    </mxCell>
    <mxCell id="117" value="Đọc stream file .jsonl, chuyển đổi sang CSV và ghi stream vào file .csv" style="text;html=1;strokeColor=none;fillColor=none;align=center;verticalAlign=middle;whiteSpace=wrap;rounded=0;" vertex="1" parent="116">
      <mxGeometry y="26" width="320" height="84" as="geometry" />
    </mxCell>
    <mxCell id="118" value="" style="endArrow=classic;html=1;rounded=0;" edge="1" parent="1" source="82">
      <mxGeometry width="50" height="50" relative="1" as="geometry">
        <mxPoint x="1460" y="3210" as="sourcePoint" />
        <mxPoint x="650" y="3260" as="targetPoint" />
        <Array as="points">
          <mxPoint x="1460" y="3230" />
          <mxPoint x="650" y="3230" />
        </Array>
      </mxGeometry>
    </mxCell>
    <mxCell id="119" value="Kết thúc Tác vụ Conference" style="ellipse;whiteSpace=wrap;html=1;aspect=fixed;fillColor=#f8cecc;strokeColor=#b85450;" vertex="1" parent="1">
      <mxGeometry x="610" y="3260" width="80" height="80" as="geometry" />
    </mxCell>
    <mxCell id="120" value="" style="endArrow=classic;html=1;rounded=0;" edge="1" parent="1" source="119">
      <mxGeometry width="50" height="50" relative="1" as="geometry">
        <mxPoint x="650" y="3340" as="sourcePoint" />
        <mxPoint x="190" y="3380" as="targetPoint" />
        <Array as="points">
          <mxPoint x="650" y="3380" />
        </Array>
      </mxGeometry>
    </mxCell>
    <mxCell id="121" value="" style="shape=line;strokeWidth=3;direction=south;html=1;" vertex="1" parent="1">
      <mxGeometry x="80" y="3420" width="220" height="10" as="geometry" />
    </mxCell>
    <mxCell id="122" value="" style="endArrow=classic;html=1;rounded=0;" edge="1" parent="1" source="121">
      <mxGeometry width="50" height="50" relative="1" as="geometry">
        <mxPoint x="190" y="3430" as="sourcePoint" />
        <mxPoint x="190" y="3480" as="targetPoint" />
      </mxGeometry>
    </mxCell>
    <mxCell id="123" value="Kết thúc" style="ellipse;whiteSpace=wrap;html=1;aspect=fixed;fillColor=#f8cecc;strokeColor=#b85450;" vertex="1" parent="1">
      <mxGeometry x="150" y="3480" width="80" height="80" as="geometry" />
    </mxCell>
    <mxCell id="124" value="Luồng UPDATE" style="shape=process;whiteSpace=wrap;html=1;backgroundOutline=1;fontStyle=1;size=18;rounded=1;fillColor=#e1d5e7;strokeColor=#9673a6;" vertex="1" parent="1">
      <mxGeometry x="1000" y="830" width="1490" height="480" as="geometry" />
    </mxCell>
    <mxCell id="125" value="PlaywrightService" style="swimlane;fontStyle=1;align=center;verticalAlign=top;childLayout=stackLayout;horizontal=1;startSize=26;horizontalStack=0;resizeParent=1;resizeParentMax=0;resizeLast=0;collapsible=1;marginBottom=0;whiteSpace=wrap;html=1;fillColor=#dae8fc;strokeColor=#6c8ebf;" vertex="1" parent="124">
      <mxGeometry x="60" y="50" width="320" height="110" as="geometry" />
    </mxCell>
    <mxCell id="126" value="Crawl trực tiếp các link đã cung cấp (mainLink, cfpLink, impLink)" style="text;html=1;strokeColor=none;fillColor=none;align=center;verticalAlign=middle;whiteSpace=wrap;rounded=0;" vertex="1" parent="125">
      <mxGeometry y="26" width="320" height="84" as="geometry" />
    </mxCell>
    <mxCell id="127" value="" style="endArrow=classic;html=1;rounded=0;exitX=0.5;exitY=1;exitDx=0;exitDy=0;" edge="1" parent="124" source="126">
      <mxGeometry width="50" height="50" relative="1" as="geometry">
        <mxPoint x="220" y="160" as="sourcePoint" />
        <mxPoint x="570" y="105" as="targetPoint" />
        <Array as="points">
          <mxPoint x="220" y="180" />
          <mxPoint x="570" y="180" />
          <mxPoint x="570" y="105" />
        </Array>
      </mxGeometry>
    </mxCell>
    <mxCell id="128" value="PageContentExtractorService" style="swimlane;fontStyle=1;align=center;verticalAlign=top;childLayout=stackLayout;horizontal=1;startSize=26;horizontalStack=0;resizeParent=1;resizeParentMax=0;resizeLast=0;collapsible=1;marginBottom=0;whiteSpace=wrap;html=1;fillColor=#dae8fc;strokeColor=#6c8ebf;" vertex="1" parent="124">
      <mxGeometry x="410" y="50" width="320" height="110" as="geometry" />
    </mxCell>
    <mxCell id="129" value="Trích xuất Enriched Text (để đảm bảo tính nhất quán)" style="text;html=1;strokeColor=none;fillColor=none;align=center;verticalAlign=middle;whiteSpace=wrap;rounded=0;" vertex="1" parent="128">
      <mxGeometry y="26" width="320" height="84" as="geometry" />
    </mxCell>
    <mxCell id="130" value="" style="endArrow=classic;html=1;rounded=0;exitX=0.5;exitY=1;exitDx=0;exitDy=0;" edge="1" parent="124" source="129">
      <mxGeometry width="50" height="50" relative="1" as="geometry">
        <mxPoint x="570" y="160" as="sourcePoint" />
        <mxPoint x="570" y="210" as="targetPoint" />
      </mxGeometry>
    </mxCell>
    <mxCell id="131" value="FileSystemService" style="swimlane;fontStyle=1;align=center;verticalAlign=top;childLayout=stackLayout;horizontal=1;startSize=26;horizontalStack=0;resizeParent=1;resizeParentMax=0;resizeLast=0;collapsible=1;marginBottom=0;whiteSpace=wrap;html=1;fillColor=#dae8fc;strokeColor=#6c8ebf;" vertex="1" parent="124">
      <mxGeometry x="410" y="210" width="320" height="110" as="geometry" />
    </mxCell>
    <mxCell id="132" value="Ghi Enriched Text vào các file tạm" style="text;html=1;strokeColor=none;fillColor=none;align=center;verticalAlign=middle;whiteSpace=wrap;rounded=0;" vertex="1" parent="131">
      <mxGeometry y="26" width="320" height="84" as="geometry" />
    </mxCell>
    <mxCell id="133" value="" style="endArrow=classic;html=1;rounded=0;exitX=1;exitY=0.5;exitDx=0;exitDy=0;" edge="1" parent="124" source="132">
      <mxGeometry width="50" height="50" relative="1" as="geometry">
        <mxPoint x="730" y="265" as="sourcePoint" />
        <mxPoint x="1450" y="265" as="targetPoint" />
      </mxGeometry>
    </mxCell>
    <mxCell id="134" value="Chuyển sang Giai đoạn 3" style="text;html=1;align=center;verticalAlign=middle;resizable=0;points=[];autosize=1;strokeColor=none;fillColor=none;" vertex="1" parent="124">
      <mxGeometry x="965" y="235" width="160" height="30" as="geometry" />
    </mxCell>
  </root>
</mxGraphModel>